# xmcd
#
# Track frame offsets: 
#        150
#        18109
#        35500
#        53861
#        71244
#        88882
#        104385
#        119633
#        137800
#
# Disc length: 2023 seconds
#
# Revision: 0
# Processed by: cddbd v1.5.2PL0 Copyright (c) Steve Scherf et al.
# Submitted via: ExactAudioCopyFreeDBPlugin 1.0
#
DISCID=8107e509
DTITLE=Brendan MacFarlane - BRENDAN MacFARLANE
DYEAR=2014
DGENRE=Pop
TTITLE0=Again
TTITLE1=Ride With Me
TTITLE2=Need You
TTITLE3=No You And Me
TTITLE4=Every Time
TTITLE5=Forgive Me For Loving You
TTITLE6=Come Alive
TTITLE7=I Cried A River
TTITLE8=Hey Love (Uncut)
EXTD=
EXTT0=
EXTT1=
EXTT2=
EXTT3=
EXTT4=
EXTT5=
EXTT6=
EXTT7=
EXTT8=
PLAYORDER=
